<svg width="129" height="147" viewBox="0 0 129 147" fill="none" xmlns="http://www.w3.org/2000/svg">
<path fill-rule="evenodd" clip-rule="evenodd" d="M79.8977 73.5687C71.0243 67.9265 59.3585 69.6231 52.4599 77.5591V77.5591C45.1335 85.9872 45.5812 98.6482 53.4847 106.538L73.9271 126.944C84.2516 137.25 101.251 136.26 110.309 124.824V124.824C119.3 113.474 116.491 96.8368 104.272 89.0672L79.8977 73.5687Z" stroke="white" stroke-width="2.8" stroke-linejoin="round"/>
<path d="M85.2967 77.2942L57.2506 110.279" stroke="white" stroke-width="2.1" stroke-linejoin="round"/>
<path d="M51.7825 78.2613L59.4647 85.0947" stroke="white" stroke-width="2.1" stroke-linejoin="round"/>
<rect width="6.42558" height="14.993" rx="3.21279" transform="matrix(-0.656059 0.75471 0.75471 0.656059 61.4661 82.7249)" fill="white"/>
<path d="M51.7825 78.2613C51.7825 78.2613 26.9777 60.3061 44.2334 47.8965C57.737 38.1853 15.891 36.7126 9.59468 26.4439" stroke="white" stroke-width="2.1"/>
<path fill-rule="evenodd" clip-rule="evenodd" d="M28.5132 15.9482C26.0513 15.3289 22.5288 15.2678 19.1157 15.7801C17.8715 15.9668 16.6842 16.2216 15.5811 16.5398C14.7647 16.1052 13.9363 15.6398 13.1018 15.1451C4.72359 10.1795 0.783785 5.08092 0.783785 2.59749C0.783785 0.114056 0.303526 -1.06864 0.0385704 1.23932C-0.432388 5.34176 3.38514 10.8801 12.4465 16.2507C12.9375 16.5417 13.4261 16.8232 13.9116 17.0949C12.4423 17.655 11.1827 18.3449 10.217 19.1506C7.81431 21.1553 7.29883 23.7977 9.04034 26.7689L10.149 26.119C8.73083 23.6994 9.11183 21.7464 11.0403 20.1374C12.109 19.2457 13.6302 18.4949 15.4418 17.9246C23.1923 21.9883 29.849 23.3462 31.6357 20.2454C32.8 18.2248 31.4128 16.6777 28.5132 15.9482ZM28.1997 17.1945C30.3991 17.7478 31.1251 18.5575 30.5222 19.6038C29.3336 21.6667 23.8655 20.6306 17.3106 17.4235C17.9529 17.2786 18.62 17.154 19.3065 17.051C22.5625 16.5623 25.9177 16.6204 28.1997 17.1945Z" fill="white"/>
</svg>
