<svg width="1922" height="1820" viewBox="0 0 1922 1820" fill="none" xmlns="http://www.w3.org/2000/svg">
<path d="M1.58017 1.22715C641.258 2.12839 1280.94 0.410405 1920.61 1.22715C1919.96 606.747 1921.24 1212.27 1920.61 1817.79C1280.94 1818.95 641.258 1818.95 1.58017 1817.79C0.806609 1212.27 0.806609 606.747 1.58017 1.22715Z" stroke="#A020F0" stroke-opacity="0.05" stroke-miterlimit="10"/>
<path d="M1.58066 1731.33C180.869 1732.37 364.56 1692.26 542.778 1723.33C691.54 1749.27 821.796 1763.77 972.73 1741.83C1042.29 1731.72 1107.84 1729.41 1178.02 1728.34C1249.73 1727.24 1318.04 1710.96 1388.49 1700.52C1570.84 1673.48 1739.96 1733.66 1920.64 1731.5" stroke="#A020F0" stroke-opacity="0.05" stroke-miterlimit="10"/>
<path d="M1.58066 1644.77C193.276 1636.78 416.479 1536.94 598.117 1625.28C669.047 1659.76 738.906 1712.87 820.517 1722.51C887.043 1730.39 941.104 1706.68 998.079 1678.46C1059.7 1647.96 1106.79 1641.85 1174.99 1631.65C1244.31 1621.31 1294.74 1580.96 1355.5 1551.38C1543.35 1459.82 1733.35 1627.43 1920.61 1644.77" stroke="#A020F0" stroke-opacity="0.05" stroke-miterlimit="10"/>
<path d="M1.58066 1558.23C132.075 1546.97 256.648 1508.3 384.078 1481.57C497.852 1457.71 566.074 1453.57 655.867 1526.94C720.608 1579.83 787.492 1669.45 875.559 1690.09C943.99 1706.09 985.643 1660.24 1024.53 1616.11C1039.79 1598.81 1053.87 1579.49 1073 1565.41C1105.72 1541.7 1135.06 1545.7 1171.63 1534.43C1242.47 1512.15 1272.49 1447.83 1321.04 1399.78C1395.19 1326.56 1468.26 1346.69 1558.73 1390.63C1678.46 1448.81 1786.46 1532.21 1920.49 1558.23" stroke="#A020F0" stroke-opacity="0.05" stroke-miterlimit="10"/>
<path d="M1.58066 1471.74C142.31 1458.67 275.006 1409.5 411.272 1376.32C533.584 1346.58 601.033 1341.17 688.505 1431.69C748.695 1493.99 813.019 1610.76 906.501 1635.6C981.21 1655.31 1012.48 1595.18 1039.44 1543.16C1050.41 1521.98 1059.31 1497.28 1076.48 1479.46C1106.82 1447.91 1133.01 1457.15 1170.58 1443.15C1244.34 1415.61 1262.31 1332.75 1300.75 1274.88C1363.23 1180.84 1447.4 1212.32 1536.66 1263.13C1662.12 1334.55 1774.53 1441.27 1920.47 1471.71" stroke="#A020F0" stroke-opacity="0.05" stroke-miterlimit="10"/>
<path d="M1.58066 1385.28C142.459 1373.09 274.827 1322.08 410.915 1288.37C463.458 1275.36 534.12 1251.76 588.805 1268.66C628.495 1280.99 660.478 1315.97 686.452 1344.56C744.827 1408.77 805.462 1530.19 900.045 1555.2C983.352 1577.22 1007.15 1506.64 1029.11 1448.46C1038.39 1423.87 1044.73 1393.87 1062.11 1372.61C1090.4 1338.05 1115.19 1346.25 1154.64 1333.38C1224.38 1310.59 1267.16 1248.61 1320.33 1204.33C1342.55 1185.83 1369.09 1163.64 1398.13 1155.1C1454.99 1138.37 1513.96 1173.21 1561.77 1199.21C1680.45 1263.84 1784.26 1356.05 1920.55 1385.09" stroke="#A020F0" stroke-opacity="0.05" stroke-miterlimit="10"/>
<path d="M1.58066 1298.77C141.06 1286.4 271.614 1234.75 406.214 1200.56C457.567 1187.49 528.794 1162.9 582.229 1180.99C621.354 1194.25 651.612 1231.34 675.741 1260.83C728.85 1325.61 785.32 1456.4 878.326 1481.89C971.332 1507.37 984.661 1393.45 995.878 1335.44C1011.32 1255.51 1018.61 1194.17 1113.46 1183.91C1199.56 1174.59 1286.38 1168.4 1372.66 1160.14C1464.9 1151.33 1545.85 1141.81 1633.21 1180.28C1729.93 1222.98 1812.34 1284.09 1920.61 1298.74" stroke="#A020F0" stroke-opacity="0.05" stroke-miterlimit="10"/>
<path d="M1.58066 1212.27C139.424 1199.6 267.925 1147.27 400.531 1112.54C450.456 1099.48 522.308 1073.71 574.196 1093.2C612.636 1107.64 640.842 1147.21 662.888 1177.69C705.94 1237.03 764.939 1392.35 852.977 1410.55C954.938 1431.64 951.725 1276.85 957.11 1218.3C963.507 1148.59 958.925 1011.21 1066.36 1025.58C1190.67 1042.22 1311.79 1088.52 1431.78 1121.33C1482.06 1135.1 1534.04 1149.95 1585.81 1157.94C1629.07 1164.65 1671.76 1161.83 1714.73 1171.07C1785.81 1186.36 1846.11 1212.13 1920.7 1212.33" stroke="#A020F0" stroke-opacity="0.05" stroke-miterlimit="10"/>
<path d="M1.58066 1125.75C138.442 1113.02 265.336 1060.1 396.663 1025.01C445.755 1011.88 518.083 985.576 569.228 1005.57C607.4 1020.64 634.148 1061.9 654.706 1093.02C693.92 1152.16 748.813 1316.19 835.899 1334.3C943.514 1356.83 928.994 1167.09 931.255 1111.07C933.903 1044.8 918.551 866.753 1033.04 888.58C1186.68 917.87 1333.12 1009.18 1474.12 1069.59C1573.34 1112.12 1661.56 1148.28 1771.64 1138.42C1821.36 1133.97 1870.84 1128.87 1920.73 1125.83" stroke="#A020F0" stroke-opacity="0.05" stroke-miterlimit="10"/>
<path d="M1.58066 1039.26C139.007 1026.72 266.586 972.931 398.449 937.473C448.314 924.067 520.196 897.762 571.905 918.66C609.304 933.784 635.159 972.875 655.212 1003.71C693.147 1061.98 742.774 1218.27 828.223 1236.37C932.535 1258.48 925.632 1076.24 930.244 1019.51C935.689 952.653 927.269 783.896 1038.39 800.851C1189.57 823.973 1334.04 932.939 1466.83 997.659C1559.06 1042.5 1656.05 1089.67 1762.39 1067.62C1817.49 1056.18 1862.57 1039.45 1920.58 1039.17" stroke="#A020F0" stroke-opacity="0.05" stroke-miterlimit="10"/>
<path d="M1.58066 952.767C142.22 939.474 272.953 884.02 407.91 847.379C514.394 818.483 593.892 799.726 657.027 897.595C692.433 952.458 726.44 1075.03 804.897 1093.22C899.539 1115.27 922.925 977.749 939.497 919.394C957.973 854.364 979.395 725.937 1078.47 744.948C1204.12 769.056 1314.59 883.992 1415.92 950.205C1505.36 1008.64 1584.2 1045.45 1693.25 1014.53C1771.46 992.337 1837.19 957.02 1920.67 952.739" stroke="#A020F0" stroke-opacity="0.05" stroke-miterlimit="10"/>
<path d="M1.58066 866.256C146.326 851.808 280.986 794.467 419.87 756.417C510.258 731.605 599.932 700.259 658.634 784.581C693.236 834.29 704.482 915.908 774.996 933.849C858.302 955.056 913.404 868.368 951.428 815.11C990.106 760.839 1044.79 674.433 1128.6 698.316C1225.12 725.775 1289.77 848.175 1351.96 914.162C1377.6 941.34 1413.25 979.699 1451.45 992.345C1500.48 1008.54 1559.54 986.458 1605.21 970.405C1710.95 933.257 1806.9 879.352 1920.58 866.199" stroke="#A020F0" stroke-opacity="0.05" stroke-miterlimit="10"/>
<path d="M1.58066 779.727C149.569 764.547 287.353 705.572 429.332 666.255C501.868 646.175 609.275 604.464 660.419 678.478C690.915 722.611 689.398 775.587 751.64 790.711C827.271 809.073 904.359 753.056 960.651 714.979C1012.42 679.943 1099.39 613.843 1168.65 642.373C1247.82 674.986 1268.08 801.723 1300.9 866.696C1314.79 894.156 1335.32 933.67 1366.65 948.005C1414.88 970.085 1492.15 933.754 1535.94 917.307C1663.73 869.428 1782.89 799.554 1920.47 779.811" stroke="#A020F0" stroke-opacity="0.05" stroke-miterlimit="10"/>
<path d="M1.58066 693.273C149.361 679.36 285.479 617.569 426.535 577.211C501.124 555.863 600.408 519.165 657.801 587.49C690.528 626.525 698.294 674.995 755.805 688.514C827.211 705.412 910.518 653.675 968.357 622.216C1021.05 593.602 1117.89 531.304 1182.04 557.102C1260.82 588.814 1267.55 721.747 1293.05 786.27C1304.47 815.194 1320.74 853.271 1352.31 868.339C1400.18 891.236 1482.45 853.356 1525.38 836.908C1656.29 786.664 1778.07 710.172 1920.44 693.273" stroke="#A020F0" stroke-opacity="0.05" stroke-miterlimit="10"/>
<path d="M1.58066 606.755C139.811 591.913 261.111 523.447 390.088 478.695C485.058 445.715 557.029 435.041 644.948 482.891C703.977 515.026 758.245 566.312 828.49 575.832C905.044 586.308 964.281 543.021 1022.68 503.507C1069.52 471.795 1151.27 407.046 1214.89 431.183C1295.81 461.994 1312.8 608.163 1341.81 673.193C1354.6 701.92 1372.75 743.152 1404.88 758.417C1449.78 779.709 1528.12 748.728 1568.91 732.872C1687.24 686.965 1789.23 614.585 1920.35 606.643" stroke="#A020F0" stroke-opacity="0.05" stroke-miterlimit="10"/>
<path d="M1.58066 520.236C126.392 501.986 226.331 425.775 337.783 374.911C442.214 327.286 522.903 337.735 630.012 368.997C728.82 397.864 829.353 442.053 933.487 450.897C1011.85 457.543 1052.88 419.156 1103.46 369.222C1141.31 331.933 1201.97 265.777 1266.21 288.082C1298.58 299.348 1321.43 341.593 1335.74 367.363C1369.51 427.915 1391.91 493.086 1423.75 554.201C1439.31 584.139 1462.43 631.539 1497.24 647.705C1538.56 666.912 1604.34 646.015 1642.07 629.426C1739.12 586.815 1807.55 520.686 1920.38 520.039" stroke="#A020F0" stroke-opacity="0.05" stroke-miterlimit="10"/>
<path d="M1.58066 433.718C116.395 413.045 195.864 329.765 292.143 273.325C397.407 211.647 500.827 237.332 616.028 258.962C750.628 284.309 887.698 323.344 1025.39 331.005C1105.72 335.483 1133.84 300.841 1173.56 241.529C1202.6 198.185 1245.47 130.676 1312.98 154.39C1349.84 167.317 1380.99 218.434 1399.26 246.739C1443.68 315.261 1477.3 389.641 1519.94 459.121C1567.93 537.219 1633.62 614.247 1733.35 548.992C1805.03 502.099 1821.39 436.055 1920.49 433.521" stroke="#A020F0" stroke-opacity="0.05" stroke-miterlimit="10"/>
<path d="M1.58066 347.198C114.342 326.526 184.052 241.556 275.303 182.891C378.723 116.481 491.99 148.249 607.579 166.471C755.537 189.791 905.52 224.742 1055.65 233.783C1135.51 238.57 1160.59 204.014 1194.74 142.758C1222.03 93.8372 1259.25 28.4411 1331.13 58.4636C1375.49 76.9953 1416.55 136.139 1442.25 170.78C1500.3 248.935 1548.05 333.426 1604.46 412.566C1645.61 470.33 1754.06 624.695 1822.25 509.674C1852.9 457.966 1832.87 352.436 1920.7 347.226" stroke="#A020F0" stroke-opacity="0.05" stroke-miterlimit="10"/>
<path d="M1.58066 260.675C107.499 242.622 183.071 176.044 274.827 128.728C377.562 75.7807 481.012 99.2693 591.661 114.647C725.339 133.404 860.207 161.06 995.402 168.496C1069.31 172.551 1104.03 144.359 1150.32 95.0729C1190.58 52.2077 1238.21 1.76652 1305.04 31.1694C1350.35 51.1093 1392.75 99.3538 1424.05 133.939C1484.06 200.461 1535.77 273.265 1594.5 340.773C1646.33 400.396 1751.8 532.286 1818.92 422.87C1851.65 369.528 1844.21 280.784 1921 260.901" stroke="#A020F0" stroke-opacity="0.05" stroke-miterlimit="10"/>
<path d="M1.58066 174.245C99.7637 166.754 182.208 124.593 274.054 96.232C368.369 67.0826 462.535 78.7986 559.261 88.7968C731.23 106.624 910.339 153.573 1071.33 77.8129C1127.62 51.3672 1188.23 22.5276 1252.82 39.9046C1359.51 68.5471 1441.45 168.585 1524.13 232.122C1595.54 287.041 1672.51 338.074 1758.49 279.606C1816.66 240.177 1846.95 192.298 1920.67 174.414" stroke="#A020F0" stroke-opacity="0.05" stroke-miterlimit="10"/>
<path d="M1.58066 87.8083C93.8133 88.7096 182.267 71.4734 273.31 61.6442C357.598 52.5474 443.851 56.2932 528.437 60.3769C685.47 67.8966 839.439 79.2184 995.55 57.5605C1063.83 48.0694 1132.41 39.7329 1201.62 43.4787C1286.95 48.0975 1364.36 85.7242 1444.22 110.79C1608.75 162.414 1755.96 93.8917 1920.52 87.752" stroke="#A020F0" stroke-opacity="0.05" stroke-miterlimit="10"/>
<path d="M1829.15 1.17627C1830.67 101.214 1860.72 196.97 1868.45 296.078C1874.11 368.853 1843.58 432.729 1827.69 502.631C1795.8 642.745 1793.3 785.648 1829.24 924.833C1846.23 990.652 1856.91 1051.79 1854.26 1119.95C1851.79 1183.29 1832.51 1239.03 1818.56 1300.54C1780.68 1468.51 1830.46 1648.19 1829.21 1817.88" stroke="#A020F0" stroke-opacity="0.05" stroke-miterlimit="10"/>
<path d="M1737.83 1.23145C1752.23 125.377 1815.87 236.06 1841.52 357.587C1853.18 412.872 1848.66 429.714 1813.73 469.312C1789.93 496.237 1767.97 518.599 1748.57 549.1C1703.41 620.101 1667.7 705.211 1661.99 788.829C1656.99 861.435 1691.74 905.624 1737.83 958.375C1779.93 1006.53 1826.1 1057.68 1812.98 1125.67C1801.47 1185.23 1750.5 1202.81 1710.25 1242.72C1649.97 1302.62 1672.58 1387.25 1684.36 1461.83C1703.14 1580.45 1731.79 1697.67 1737.92 1817.79" stroke="#A020F0" stroke-opacity="0.05" stroke-miterlimit="10"/>
<path d="M1646.55 1.31934C1676.96 150.333 1771.12 276.76 1816.67 420.959C1836.07 482.412 1839.43 504.239 1778.2 526.91C1737.86 541.837 1700.85 569.55 1670.62 598.136C1602.9 661.843 1532.6 757.571 1518.58 850.004C1506.47 929.708 1582.7 962.659 1646.52 993.358C1692.64 1015.55 1803.46 1062.58 1773.77 1131.36C1748.57 1189.83 1651.19 1170.51 1601.44 1182.51C1493.59 1208.53 1538.4 1313.35 1556.04 1393.11C1587.4 1534.5 1632.03 1673.65 1646.43 1817.68" stroke="#A020F0" stroke-opacity="0.05" stroke-miterlimit="10"/>
<path d="M1555.15 1.28467C1593.35 167.676 1709.53 305.65 1770.31 464.521C1798.73 538.704 1787.81 545.379 1716.76 556.645C1667.73 564.305 1619.65 590.779 1581.15 619.422C1500.49 679.72 1410.4 783.194 1395.67 884.16C1382.64 973.383 1484.19 993.154 1555.09 1013.01C1596.32 1024.56 1755.23 1060.66 1713.37 1136.25C1680.85 1194.95 1547.05 1147.89 1497.96 1146.62C1366.54 1143.29 1421.94 1269.98 1442.53 1352.21C1481.21 1506.8 1538.07 1659.2 1555.06 1817.67" stroke="#A020F0" stroke-opacity="0.05" stroke-miterlimit="10"/>
<path d="M1463.73 1.42871C1495.48 154.724 1608.98 272.448 1667.71 415.576C1693.93 479.31 1691.7 496.068 1626.69 513.586C1580.57 526.006 1537.43 555.831 1502.26 585.6C1426.3 650.123 1335.2 755.033 1319.82 855.409C1307.44 936.069 1391.23 962.431 1456.29 984.962C1501.22 1000.71 1623.56 1038.87 1590.89 1108.52C1564.5 1164.7 1457.99 1146.85 1409.4 1157.66C1295.1 1183.01 1341.45 1285.36 1361.56 1370.49C1396.67 1519.2 1446.89 1665.65 1463.52 1817.62" stroke="#A020F0" stroke-opacity="0.05" stroke-miterlimit="10"/>
<path d="M1372.32 1.28467C1396.12 117.657 1492.19 188.094 1550.6 287.653C1579.4 336.714 1569.55 344.431 1530.01 375.186C1494.04 402.678 1461.47 433.921 1432.9 468.323C1366.49 548.646 1291.93 655.133 1277.29 759.395C1268.52 821.778 1297.02 857.715 1342.27 896.609C1457.77 995.914 1384.1 1081 1319.57 1184.89C1270.78 1263.41 1285.8 1338.95 1302.17 1426.31C1326.53 1556.68 1362.5 1685.42 1372.29 1817.79" stroke="#A020F0" stroke-opacity="0.05" stroke-miterlimit="10"/>
<path d="M1280.93 1.08887C1299.2 88.1147 1375.84 88.3964 1431.66 143.287C1479.86 190.828 1390.78 281.684 1364.57 330.689C1312.47 428.135 1253.29 537.129 1241.93 647.812C1236.9 696.929 1232.73 745.371 1224.61 794.263C1201.22 934.462 1219.49 1073.9 1228.69 1215.09C1234.64 1306.65 1237.22 1399.05 1247.25 1490.22C1259.15 1599.49 1279.21 1707.87 1280.96 1817.96" stroke="#A020F0" stroke-opacity="0.05" stroke-miterlimit="10"/>
<path d="M1189.55 1.08887C1181.25 81.0456 1280.21 26.4362 1317.04 38.5748C1381.99 60.12 1309.42 199.305 1293.68 242.114C1254.35 348.995 1200.17 459.678 1189.25 573.741C1182.77 641.532 1163.49 677.046 1115.58 725.403C1069.71 771.507 1037.66 811.443 1046.17 878.754C1061.58 1000.25 1107.85 1120.09 1140.13 1237.98C1191.45 1425.52 1191.48 1624.56 1189.61 1817.84" stroke="#A020F0" stroke-opacity="0.05" stroke-miterlimit="10"/>
<path d="M1098.15 1.14404C1084.58 82.34 1193 21.5909 1227.66 30.0682C1303.8 48.6562 1233.37 201.219 1216.62 245.83C1176.31 353.247 1118.59 459.874 1102.16 573.881C1092.2 642.91 1073.99 680.368 1029.03 734.64C987.171 785.193 952.093 829.185 959.204 897.031C972.027 1018.98 1026.12 1139.41 1061.37 1256.23C1117.9 1443.77 1093.57 1625.57 1098.12 1817.73" stroke="#A020F0" stroke-opacity="0.05" stroke-miterlimit="10"/>
<path d="M1006.75 1.17627C1000.56 86.2025 1123.23 49.308 1171.52 69.4169C1260.45 106.509 1185.42 234.625 1157.12 291.91C1106.75 394.088 1030.61 497.252 1010.8 610.442C998.51 680.457 990.179 746.078 970.067 814.966C950.817 880.954 926.212 950.575 933.114 1019.97C943.617 1125.3 990.507 1228.24 1021.3 1328.93C1048.49 1417.78 1064.47 1499.77 1046.74 1591.89C1032.1 1668.13 1008.72 1739.3 1006.75 1817.68" stroke="#A020F0" stroke-opacity="0.05" stroke-miterlimit="10"/>
<path d="M915.46 1.26514C942.802 97.4723 1047.08 79.7855 1124.95 119.384C1229.56 172.613 1150.71 283.409 1106.38 351.762C1045.03 446.308 944.617 546.458 920.131 658.353C902.577 738.535 919.804 837.474 920.875 919.486C921.976 1005.13 917.9 1093.57 926.349 1178.93C934.71 1263.67 971.662 1344.08 997.041 1424.91C1019.77 1497.35 1039.26 1573.19 1001 1644.22C967.884 1705.65 924.624 1745.33 915.46 1817.85" stroke="#A020F0" stroke-opacity="0.05" stroke-miterlimit="10"/>
<path d="M824.08 1.28467C857.373 105.181 981.977 109.039 1068.82 158.748C1182.84 223.975 1105.87 322.745 1046.87 397.914C976.978 487.052 858.087 583.006 828.692 694.985C805.545 783.363 847.763 911.113 861.836 999.885C877.813 1100.71 888.167 1200.92 900.187 1301.94C908.369 1370.69 936.366 1431.83 956.895 1497.68C975.818 1558.26 997.626 1633.99 945.411 1685.36C895.457 1734.51 838.957 1741.13 823.991 1817.73" stroke="#A020F0" stroke-opacity="0.05" stroke-miterlimit="10"/>
<path d="M732.746 1.26514C767.824 104.175 891.475 113.779 977.966 165.995C1090.46 233.841 1016.26 328.105 956.395 405.386C887.161 494.75 775.351 588.169 743.278 698.627C717.215 788.384 764.105 920.866 780.588 1010.51C799.689 1114.15 812.393 1215.97 824.622 1320.12C832.208 1384.55 857.349 1441.87 876.182 1503.66C894.212 1562.8 916.646 1639.63 863.24 1687.99C809.834 1736.35 746.402 1737.75 732.657 1817.91" stroke="#A020F0" stroke-opacity="0.05" stroke-miterlimit="10"/>
<path d="M641.255 1.26514C667.289 94.2054 756.457 97.0217 827.952 148.167C914.234 210.127 860.233 304.476 824.411 380.039C780.764 472.021 717.302 564.99 696.833 665.309C678.624 754.503 708.466 864.792 719.891 954.156C732.119 1049.91 739.2 1145.13 748.245 1240.97C754.463 1307.02 775.468 1368.61 790.88 1432.97C807.661 1502.9 821.495 1572.01 773.981 1634.11C724.413 1698.89 655.15 1732.26 641.166 1817.88" stroke="#A020F0" stroke-opacity="0.05" stroke-miterlimit="10"/>
<path d="M549.838 1.19824C558.169 78.5358 606.368 73.6635 652.633 122.64C700.981 173.842 679.083 277.794 676.941 341.895C670.99 518.453 669.354 693.631 674.471 870.246C678.994 1025.82 684.646 1173.43 709.252 1327.23C722.283 1408.68 728.264 1481.17 685.866 1556.82C636.507 1644.83 564.804 1715.52 549.898 1817.76" stroke="#A020F0" stroke-opacity="0.05" stroke-miterlimit="10"/>
<path d="M458.36 1.17627C452.558 50.8852 472.403 61.4466 487.785 100.341C499.448 129.772 491.117 163.962 497.752 194.717C506.053 233.442 521.375 272.196 535.835 309.118C569.604 395.327 617.059 482.128 634.018 573.406C647.288 644.52 629.466 726.138 622.623 797.786C608.282 947.561 611.019 1086.61 625.985 1236.07C634.911 1326.19 635.446 1403.9 597.184 1489.26C548.093 1598.82 474.753 1697.39 458.449 1817.68" stroke="#A020F0" stroke-opacity="0.05" stroke-miterlimit="10"/>
<path d="M367.109 1.19824C366.9 107.206 369.162 204.202 424.412 300.184C471.748 382.394 544.85 465.392 562.433 560.022C575.197 628.573 554.46 707.15 543.065 775.137C518.43 922.095 524.886 1059.84 535.835 1207.65C542.678 1300.08 541.785 1377 505.458 1465.46C457.229 1582.42 385.734 1691.89 367.138 1817.76" stroke="#A020F0" stroke-opacity="0.05" stroke-miterlimit="10"/>
<path d="M275.721 1.14404C276.108 117.094 271.407 228.369 322.909 336.292C361.587 417.122 418.563 497.839 433.35 586.949C444.745 655.669 427.25 731.964 418.265 800.458C399.164 945.839 403.686 1084.71 412.315 1230.6C417.581 1319.88 417.194 1397.53 386.936 1484.08C348.02 1595.27 291.907 1700.43 275.781 1817.62" stroke="#A020F0" stroke-opacity="0.05" stroke-miterlimit="10"/>
<path d="M184.352 1.23145C184.352 132.981 171.915 272.561 210.98 400.001C234.782 477.818 269.265 554.592 276.822 636.013C283.219 705.127 272.984 777.141 267.361 846.114C255.787 988.792 258.881 1129.19 263.999 1272.06C266.974 1354.67 268.908 1434.2 250.045 1515.59C226.689 1616.59 191.105 1713.89 184.352 1817.79" stroke="#A020F0" stroke-opacity="0.05" stroke-miterlimit="10"/>
<path d="M92.9513 1.31934C92.9513 153.15 82.0917 310.022 100.062 461.007C117.215 603.324 123.539 746.624 118.985 889.8C114.611 1030.62 116.218 1171.01 118.033 1311.75C120.264 1481.58 91.2554 1648.95 92.8918 1817.99" stroke="#A020F0" stroke-opacity="0.05" stroke-miterlimit="10"/>
</svg>
